# xmcd
#
# Track frame offsets:
#	150
#	17834
#	34590
#	50529
#	63738
#	82610
#	104881
#	130650
#	145166
#	158188
#	168882
#	187778
#	203974
#	224906
#	237249
#	255177
#	276945
#	298050
#
# Disc length: 4243 seconds
#
# Revision: 0
# Processed by: cddbd v1.5.1PL2 Copyright (c) Steve Scherf et al.
# Submitted via: audiograbber 1.83.01
#
DISCID=07109112
DTITLE=Fleetwoot Mac - Selection from 25 years
DYEAR=1900
DGENRE=
TTITLE0=Need your love so bad
TTITLE1=Did you ever love me
TTITLE2=Oh well
TTITLE3=I believe me time ain't long
TTITLE4=Bermuda Triangle
TTITLE5=Why
TTITLE6=Station man
TTITLE7=Albatross
TTITLE8=Black magic woman
TTITLE9=Stop messin' around
TTITLE10=Trinyty (prev. unreleased)
TTITLE11=Heroes are hard to find
TTITLE12=Green Marahishi
TTITLE13=Teen beat (prev. unreleased)
TTITLE14=Paper doll (prev. unreleased)
TTITLE15=Love shines (prev. unreleased)
TTITLE16=Heart of stone (prev. unreleased)
TTITLE17=Silver springs (prev. unreleased)
EXTD=
EXTT0=
EXTT1=
EXTT2=
EXTT3=
EXTT4=
EXTT5=
EXTT6=
EXTT7=
EXTT8=
EXTT9=
EXTT10=
EXTT11=
EXTT12=
EXTT13=
EXTT14=
EXTT15=
EXTT16=
EXTT17=
PLAYORDER=
